<svg id="Calque_1" data-name="Calque 1" xmlns="http://www.w3.org/2000/svg" xmlns:xlink="http://www.w3.org/1999/xlink" viewBox="0 0 24.46 27.34"><defs><style>.cls-1{fill:none;}.cls-2{clip-path:url(#clip-path);}.cls-3{fill:#47167d;}.cls-4{fill:#fff;}.cls-5{fill:#efefef;}</style><clipPath id="clip-path" transform="translate(-297.57 -333.07)"><rect class="cls-1" x="292.53" y="329.47" width="34.53" height="34.53"/></clipPath></defs><g class="cls-2"><polygon class="cls-3" points="24.46 0 0 0 2.16 24.46 12.23 27.34 22.3 24.46 24.46 0"/><polygon class="cls-3" points="12.23 2.16 12.23 25.11 20.29 22.8 22.08 2.16 12.23 2.16"/><path class="cls-4" d="M316.2,341.7l.21-2.87H309.8v2.87Zm-6.4,5.76v-2.88H316l-.5,8.27-5.68,1.87v-3l2.94-1,.22-3.23Z" transform="translate(-297.57 -333.07)"/><path class="cls-5" d="M306.27,341.7h3.53v-2.87h-6.55l.5,8.63h6.05v-2.88h-3.31Zm3.53,10v3l-5.69-1.87-.29-4h2.88l.15,1.79Z" transform="translate(-297.57 -333.07)"/></g></svg>