<svg id="Calque_1" data-name="Calque 1" xmlns="http://www.w3.org/2000/svg" xmlns:xlink="http://www.w3.org/1999/xlink" viewBox="0 0 63.71 63.71"><defs><style>.cls-1{fill:none;}.cls-2{clip-path:url(#clip-path);}.cls-3{fill:#47167d;}</style><clipPath id="clip-path" transform="translate(-290.24 -413.62)"><rect class="cls-1" x="290.24" y="413.62" width="63.92" height="63.92"/></clipPath></defs><g class="cls-2"><path class="cls-3" d="M338.66,461.4h-7V449.93c0-2.76-1.06-4.88-3.61-4.88a3.77,3.77,0,0,0-3.61,2.55,5.9,5.9,0,0,0-.21,1.91V461.4h-7V440.16h7v3a6.79,6.79,0,0,1,6.37-3.61c4.67,0,8.07,3,8.07,9.55Zm-29.09-24.21a3.83,3.83,0,0,1-4-3.61c0-2.12,1.49-3.61,4-3.61,2.33,0,4,1.49,4,3.61A3.69,3.69,0,0,1,309.57,437.19Zm3.61,24.21h-7V440.16h7Zm28.88-47.78H302.14a11.88,11.88,0,0,0-11.9,11.89v39.92a11.88,11.88,0,0,0,11.9,11.9h39.92A11.88,11.88,0,0,0,354,465.43V425.51A11.61,11.61,0,0,0,342.06,413.62Z" transform="translate(-290.24 -413.62)"/></g></svg>