<svg id="Calque_1" data-name="Calque 1" xmlns="http://www.w3.org/2000/svg" xmlns:xlink="http://www.w3.org/1999/xlink" viewBox="0 0 26.24 26.24"><defs><style>.cls-1{fill:none;}.cls-2{clip-path:url(#clip-path);}.cls-3{fill:#efefef;}.cls-4{fill:#47167d;}</style><clipPath id="clip-path"><rect class="cls-1" x="-4.37" y="-4.38" width="34.98" height="34.98"/></clipPath></defs><g class="cls-2"><rect class="cls-3" width="26.24" height="26.24" rx="2.92"/><path class="cls-4" d="M10.22,9.6H8.76v3.23H10.2a1.15,1.15,0,0,0,.92-.39,1.72,1.72,0,0,0,.33-1.14,2,2,0,0,0-.34-1.23A1,1,0,0,0,10.22,9.6Z"/><path class="cls-4" d="M19.45,17.74a3.19,3.19,0,0,1-2,.62A3.19,3.19,0,0,1,16,18a2.6,2.6,0,0,1-1-.92,2.4,2.4,0,0,1-.36-1.28h1.91a1.19,1.19,0,0,0,.25.79.92.92,0,0,0,.75.27c.55,0,.82-.25.82-.74a.62.62,0,0,0-.25-.47A5,5,0,0,0,17,15.09a4.41,4.41,0,0,1-1.71-1,2,2,0,0,1-.47-1.35,2.13,2.13,0,0,1,.73-1.67,2.78,2.78,0,0,1,1.93-.65,3,3,0,0,1,2,.65,2.2,2.2,0,0,1,.76,1.76h-2c0-.63-.26-.94-.79-.94a.68.68,0,0,0-.52.2.72.72,0,0,0-.21.55.6.6,0,0,0,.23.45,4.74,4.74,0,0,0,1.07.56,4.53,4.53,0,0,1,1.74,1,2.24,2.24,0,0,1-.26,3.11Zm-6.79-4a3.41,3.41,0,0,1-2.51.88H8.76v3.65H6.66V7.86H10.2a3.24,3.24,0,0,1,2.45,1,3.43,3.43,0,0,1,.91,2.48,3.22,3.22,0,0,1-.9,2.35ZM2.19,2.15v21.9H24.05V2.15Z"/></g></svg>