<svg id="Calque_1" data-name="Calque 1" xmlns="http://www.w3.org/2000/svg" xmlns:xlink="http://www.w3.org/1999/xlink" viewBox="0 0 26.24 26.24"><defs><style>.cls-1{fill:none;}.cls-2{clip-path:url(#clip-path);}.cls-3{fill:#efefef;}.cls-4{fill:#47167d;}</style><clipPath id="clip-path" transform="translate(-284.63 -401.85)"><rect class="cls-1" x="280.26" y="397.47" width="34.98" height="34.98"/></clipPath></defs><g class="cls-2"><rect class="cls-3" width="26.24" height="26.24" rx="2.92"/><path class="cls-4" d="M294.85,411.45h-1.46v3.23h1.44a1.14,1.14,0,0,0,.92-.39,1.72,1.72,0,0,0,.33-1.14,2,2,0,0,0-.34-1.23A1,1,0,0,0,294.85,411.45Z" transform="translate(-284.63 -401.85)"/><path class="cls-4" d="M304.08,419.59a3.2,3.2,0,0,1-2,.62,3.24,3.24,0,0,1-1.49-.33,2.59,2.59,0,0,1-1-.92,2.43,2.43,0,0,1-.36-1.28h1.91a1.18,1.18,0,0,0,.25.79.93.93,0,0,0,.75.27c.55,0,.82-.25.82-.74a.65.65,0,0,0-.25-.47,5.16,5.16,0,0,0-1.09-.59,4.46,4.46,0,0,1-1.71-1,2,2,0,0,1-.47-1.35,2.15,2.15,0,0,1,.73-1.67,2.77,2.77,0,0,1,1.93-.65,3,3,0,0,1,2,.65,2.2,2.2,0,0,1,.76,1.76h-2c0-.63-.26-.94-.79-.94a.69.69,0,0,0-.52.2.72.72,0,0,0-.21.55.59.59,0,0,0,.23.45,4.92,4.92,0,0,0,1.07.56,4.49,4.49,0,0,1,1.74,1,2.24,2.24,0,0,1-.26,3.11Zm-6.79-4a3.43,3.43,0,0,1-2.51.88h-1.39v3.65h-2.1V409.71h3.54a3.22,3.22,0,0,1,2.45,1,3.43,3.43,0,0,1,.91,2.48A3.21,3.21,0,0,1,297.29,415.54ZM286.82,404V425.9h21.86V404Z" transform="translate(-284.63 -401.85)"/></g></svg>