<svg id="Calque_1" data-name="Calque 1" xmlns="http://www.w3.org/2000/svg" viewBox="0 0 63 63"><defs><style>.cls-1{fill:#442778;}.cls-2{fill:#fff;}</style></defs><rect class="cls-1" width="63" height="63" rx="11.37"/><path class="cls-2" d="M299.21,378.3a6.09,6.09,0,0,1,2.35-2.5s2.25-.71,2.7-2a4.42,4.42,0,0,0,.56-2.87,5.67,5.67,0,0,0-1.61-2.85l-6.14-6.17a4.91,4.91,0,0,0-5-.77l-.77.39-5.18,5.13s-1.88,1.58-1.13,7,6,12.57,6,12.57,5.88,8.25,12.31,13,9,5.76,9,5.76a20,20,0,0,0,7.11,2.22c3.85.36,4.94-.57,4.94-.57a7.18,7.18,0,0,0,1.29-.93l4.65-4.56a5.45,5.45,0,0,0,.48-5.42l-6.91-7.08a4.49,4.49,0,0,0-5.37-1,4.87,4.87,0,0,0-1.66,1.5s-.61,1.13-.53,1.45a5.45,5.45,0,0,1-3.68,2.47s-6.18.36-12.73-10.31C299.84,382.72,298.42,379.49,299.21,378.3Z" transform="translate(-276.5 -352.5)"/></svg>