<svg id="Calque_1" data-name="Calque 1" xmlns="http://www.w3.org/2000/svg" viewBox="0 0 16 16"><defs><style>.cls-1{fill:#fff;fill-rule:evenodd;}</style></defs><path class="cls-1" d="M1.88.51a1.75,1.75,0,0,1,2.47,0l.14.16L6.29,3a1.73,1.73,0,0,1,.32,1.49L6.06,6.66a.68.68,0,0,0,.18.65L8.69,9.76a.68.68,0,0,0,.65.18l2.19-.54A1.7,1.7,0,0,1,13,9.71l2.31,1.79a1.74,1.74,0,0,1,.16,2.61l-1,1a2.77,2.77,0,0,1-2.87.7,18.61,18.61,0,0,1-7-4.42,18.61,18.61,0,0,1-4.42-7,2.79,2.79,0,0,1,.7-2.88Z" transform="translate(0 0)"/></svg>