<svg id="Calque_1" data-name="Calque 1" xmlns="http://www.w3.org/2000/svg" xmlns:xlink="http://www.w3.org/1999/xlink" viewBox="0 0 63 65.13"><defs><style>.cls-1{fill:none;}.cls-2{fill:#442778;}.cls-3{clip-path:url(#clip-path);}.cls-4{fill:#452778;}.cls-5{fill:#fff;}</style><clipPath id="clip-path" transform="translate(-276.5 -352.5)"><rect class="cls-1" x="274.39" y="354.5" width="68.87" height="68.87"/></clipPath></defs><rect class="cls-2" width="63" height="63" rx="11.37"/><g class="cls-3"><path class="cls-4" d="M308.82,360.24a28.69,28.69,0,0,0-8.87,56h17.74a28.69,28.69,0,0,0-8.87-56Z" transform="translate(-276.5 -352.5)"/><path class="cls-5" d="M327.47,388.22c0-4.16-1.25-7.13-3.38-9.22,1.36-2.41-.44-7.28-.44-7.28a20.94,20.94,0,0,0-8,3.41,38.53,38.53,0,0,0-6.79-.54,39,39,0,0,0-6.93.56,21.14,21.14,0,0,0-8.09-3.43s-1.84,5-.36,7.38c-2.06,2.09-3.27,5-3.27,9.12,0,8.78,5.56,12.3,13.21,13.3a7.15,7.15,0,0,0-1.73,4.63v.44a5.7,5.7,0,0,1-.74.15,7.34,7.34,0,0,1-4.07-.47,9.62,9.62,0,0,1-2.48-2.61,5.31,5.31,0,0,0-4.9-2.83.69.69,0,0,0-.71.8c.06.28.3.72,1.28,1.08a4.36,4.36,0,0,1,2.06,2.09c.6,1,.6,3.54,3.68,4.9a9.11,9.11,0,0,0,5.88.47v4.59a1.47,1.47,0,0,1-1.71,1.45,28.57,28.57,0,0,0,17.76,0,1.48,1.48,0,0,1-1.71-1.46v-8.61a7.1,7.1,0,0,0-1.73-4.63C321.91,400.52,327.47,397,327.47,388.22Z" transform="translate(-276.5 -352.5)"/><path class="cls-5" d="M295.91,380.33l5.5-1.84a1.88,1.88,0,0,0,.53-3.3l-.05,0a15.46,15.46,0,0,0-8.45,4A2.68,2.68,0,0,0,295.91,380.33Z" transform="translate(-276.5 -352.5)"/><path class="cls-5" d="M315.55,375.16a1.9,1.9,0,0,0,.53,3.34l5.47,1.83a2.67,2.67,0,0,0,2.54-1.33,15.81,15.81,0,0,0-8.48-3.88Z" transform="translate(-276.5 -352.5)"/><path class="cls-5" d="M308.82,399a7.14,7.14,0,0,0-5.44,2.54,45,45,0,0,0,10.88,0A7.14,7.14,0,0,0,308.82,399Z" transform="translate(-276.5 -352.5)"/></g></svg>