<svg id="Calque_1" data-name="Calque 1" xmlns="http://www.w3.org/2000/svg" viewBox="0 0 96.8 97.01"><defs><style>.cls-1{fill:none;stroke:#442778;stroke-miterlimit:10;stroke-width:3px;}</style></defs><path class="cls-1" d="M360.47,452.07c3.32-.09,3.62-5.57,3.62-5.57s.09-62.41,0-67.4a4.75,4.75,0,0,0-4.89-4.89H275.88c-5.06.09-5.51,5.28-5.51,5.28s-.1,63.19,0,67a6.86,6.86,0,0,0,3.42,5.57h7.63" transform="translate(-268.83 -372.7)"/><polyline class="cls-1" points="20.13 79.37 49.67 79.37 51.47 79.37"/><line class="cls-1" x1="56.13" y1="77.8" x2="64.15" y2="77.8"/><line class="cls-1" x1="67.97" y1="77.8" x2="71.29" y2="77.8"/><line class="cls-1" x1="75.5" y1="77.8" x2="85.48" y2="77.8"/><line class="cls-1" x1="56.62" y1="62.84" x2="63.76" y2="62.84"/><line class="cls-1" x1="68.46" y1="62.84" x2="70.61" y2="62.84"/><line class="cls-1" x1="75.5" y1="62.84" x2="85.09" y2="62.84"/><line class="cls-1" x1="56.62" y1="47.48" x2="63.76" y2="47.48"/><line class="cls-1" x1="67.97" y1="47.48" x2="71.29" y2="47.48"/><line class="cls-1" x1="75.5" y1="47.48" x2="85.09" y2="47.48"/><path class="cls-1" d="M349.32,415.29h7.53s1.47.1,1.56,1.37,0,6.85,0,6.85a1.24,1.24,0,0,1-1.07.88c-.88.1-34.93,0-34.93,0s-2.15-.68-2.05-1.76,0-6,0-6-.1-1.37,2-1.37h18.39" transform="translate(-268.83 -372.7)"/><line class="cls-1" x1="55.25" y1="57.16" x2="55.25" y2="51.68"/><line class="cls-1" x1="86.26" y1="57.16" x2="86.26" y2="51.73"/><path class="cls-1" d="M320.35,432.8s-.58-2.83,2.06-2.93,35,0,35,0,1-.2,1,2.05,0,6.95,0,6.95l0,1.17H320.3Z" transform="translate(-268.83 -372.7)"/><polyline class="cls-1" points="55.25 67.34 55.25 72.72 86.26 72.72 86.26 67.34"/><path class="cls-1" d="M324.08,445.42c-4.5,0-3.73,3.33-3.73,3.33v5.18s0,1.76,3.73,1.67h34.4a4.62,4.62,0,0,0,1.2-3.53v-5.38s.19-1.27-4.6-1.27" transform="translate(-268.83 -372.7)"/><line class="cls-1" x1="1.53" y1="17.84" x2="95.3" y2="17.84"/><line class="cls-1" x1="32.07" y1="29.67" x2="38.33" y2="29.67"/><line class="cls-1" x1="42.73" y1="29.67" x2="72.76" y2="29.67"/><line class="cls-1" x1="32.07" y1="35.84" x2="42.73" y2="35.84"/><line class="cls-1" x1="47.13" y1="35.84" x2="51.53" y2="35.84"/><line class="cls-1" x1="56.13" y1="35.84" x2="67.97" y2="35.84"/><line class="cls-1" x1="8.2" y1="42.59" x2="18.37" y2="42.59"/><line class="cls-1" x1="23.36" y1="42.59" x2="40.09" y2="42.59"/><line class="cls-1" x1="8.2" y1="48.85" x2="13.28" y2="48.85"/><line class="cls-1" x1="17.78" y1="48.85" x2="29.33" y2="48.85"/><line class="cls-1" x1="34.9" y1="48.85" x2="37.74" y2="48.85"/><line class="cls-1" x1="41.36" y1="48.85" x2="47.13" y2="48.85"/><line class="cls-1" x1="8.2" y1="54.42" x2="16.41" y2="54.42"/><line class="cls-1" x1="19.64" y1="54.42" x2="30.11" y2="54.42"/><line class="cls-1" x1="34.9" y1="54.72" x2="46.54" y2="54.72"/><polyline class="cls-1" points="1.53 67.83 51.47 67.83 55.25 67.83"/><line class="cls-1" x1="86.65" y1="67.83" x2="95.27" y2="67.83"/><line class="cls-1" x1="34.9" y1="79.37" x2="34.9" y2="86.9"/><line class="cls-1" x1="61.41" y1="82.89" x2="61.41" y2="86.9"/><path class="cls-1" d="M297.64,459.61h39.15s2.84.19,2.79,2.54v4.7s.15,1.37-2.79,1.37H297.22s-3,.19-3-2.25v-3.33" transform="translate(-268.83 -372.7)"/><circle class="cls-1" cx="10.74" cy="9.97" r="3.47"/><circle class="cls-1" cx="21.26" cy="9.97" r="3.47"/><circle class="cls-1" cx="31.72" cy="9.97" r="3.47"/></svg>