<svg id="Calque_1" data-name="Calque 1" xmlns="http://www.w3.org/2000/svg" xmlns:xlink="http://www.w3.org/1999/xlink" viewBox="0 0 88.03 88.02"><defs><style>.cls-1{fill:none;}.cls-2{clip-path:url(#clip-path);}.cls-3{fill:#47167d;}</style><clipPath id="clip-path" transform="translate(-290.24 -413.62)"><rect class="cls-1" x="290.24" y="413.62" width="88.32" height="88.32"/></clipPath></defs><g class="cls-2"><path class="cls-3" d="M357.43,449.12c-5,3.52-10,7-15,10.27-2.05,1.47-5.57,4.4-8.21,4.4s-6.17-2.93-8.22-4.4c-5-3.52-10-7-15-10.27-2.35-1.47-5.58-5.28-5.58-7.92,0-3.23,1.76-5.87,5-5.87h46.94a5.14,5.14,0,0,1,5,5C363,443.84,360.37,447.07,357.43,449.12ZM363,475.23a5,5,0,0,1-5,5H310.78a5,5,0,0,1-5-5V450a31.59,31.59,0,0,0,3.23,2.64c5.28,3.52,10.56,7.34,15.85,11.15,2.64,2.06,5.86,4.4,9.39,4.4s6.74-2.34,9.38-4.4c5.29-3.81,10.57-7.33,15.85-11.15a31.59,31.59,0,0,0,3.23-2.64v25.23Zm-1.17-61.61H306.67a16.4,16.4,0,0,0-16.43,16.43v55.16a16.4,16.4,0,0,0,16.43,16.43h55.17a16.4,16.4,0,0,0,16.43-16.43V430.05C378.56,421,371.22,413.62,361.84,413.62Z" transform="translate(-290.24 -413.62)"/></g></svg>